<svg width="30" height="30" viewBox="0 0 30 30" fill="none" xmlns="http://www.w3.org/2000/svg">
<path d="M9.79167 2.5H6.66667C4.36548 2.5 2.5 4.36548 2.5 6.66667V9.79167C2.5 12.0929 4.36548 13.9583 6.66667 13.9583H9.79167C12.0929 13.9583 13.9583 12.0929 13.9583 9.79167V6.66667C13.9583 4.36548 12.0929 2.5 9.79167 2.5Z" fill="#9DA8C3"/>
<path d="M23.3333 2.5H20.2083C17.9071 2.5 16.0417 4.36548 16.0417 6.66667V9.79167C16.0417 12.0929 17.9071 13.9583 20.2083 13.9583H23.3333C25.6345 13.9583 27.5 12.0929 27.5 9.79167V6.66667C27.5 4.36548 25.6345 2.5 23.3333 2.5Z" fill="#9DA8C3"/>
<path d="M9.79167 16.0417H6.66667C4.36548 16.0417 2.5 17.9071 2.5 20.2083V23.3333C2.5 25.6345 4.36548 27.5 6.66667 27.5H9.79167C12.0929 27.5 13.9583 25.6345 13.9583 23.3333V20.2083C13.9583 17.9071 12.0929 16.0417 9.79167 16.0417Z" fill="#9DA8C3"/>
<path d="M23.3333 16.0417H20.2083C17.9071 16.0417 16.0417 17.9071 16.0417 20.2083V23.3333C16.0417 25.6345 17.9071 27.5 20.2083 27.5H23.3333C25.6345 27.5 27.5 25.6345 27.5 23.3333V20.2083C27.5 17.9071 25.6345 16.0417 23.3333 16.0417Z" fill="#9DA8C3"/>
</svg>
